<svg width="30" height="30" viewBox="0 0 30 30" fill="none" xmlns="http://www.w3.org/2000/svg">
<path d="M23.75 10H6.25C4.86929 10 3.75 11.1193 3.75 12.5V25C3.75 26.3807 4.86929 27.5 6.25 27.5H23.75C25.1307 27.5 26.25 26.3807 26.25 25V12.5C26.25 11.1193 25.1307 10 23.75 10Z" stroke="#828282" stroke-width="2" stroke-linecap="round" stroke-linejoin="round"/>
<path d="M26.25 18.75H3.75M15 6.25C15 5.50832 14.7801 4.7833 14.368 4.16661C13.956 3.54993 13.3703 3.06928 12.6851 2.78545C11.9998 2.50162 11.2458 2.42736 10.5184 2.57206C9.79098 2.71675 9.1228 3.0739 8.59835 3.59835C8.0739 4.1228 7.71675 4.79098 7.57206 5.51841C7.42736 6.24584 7.50162 6.99984 7.78545 7.68506C8.06928 8.37029 8.54993 8.95596 9.16661 9.36801C9.7833 9.78007 10.5083 10 11.25 10L15 6.25ZM18.75 10C19.4917 10 20.2167 9.78007 20.8334 9.36801C21.4501 8.95596 21.9307 8.37029 22.2145 7.68506C22.4984 6.99984 22.5726 6.24584 22.4279 5.51841C22.2833 4.79098 21.9261 4.1228 21.4017 3.59835C20.8772 3.0739 20.209 2.71675 19.4816 2.57206C18.7542 2.42736 18.0002 2.50162 17.3149 2.78545C16.6297 3.06928 16.044 3.54993 15.632 4.16661C15.2199 4.7833 15 5.50832 15 6.25L18.75 10ZM15 6.25V27.5V6.25Z" stroke="#828282" stroke-width="2" stroke-linecap="round" stroke-linejoin="round"/>
</svg>
